<svg width="1280" height="640" viewBox="0 0 1280 640" fill="none" xmlns="http://www.w3.org/2000/svg">
<rect width="1280" height="640" fill="white"/>
<rect x="44" y="40" width="1200" height="560" fill="white"/>
<path d="M624.562 139H619.344V108.938C619.344 106.562 619.49 103.656 619.781 100.219H619.656C619.156 102.24 618.708 103.688 618.312 104.562L603 139H600.438L585.156 104.812C584.719 103.812 584.271 102.281 583.812 100.219H583.688C583.854 102.01 583.938 104.938 583.938 109V139H578.875V94.1875H585.812L599.562 125.438C600.625 127.833 601.312 129.625 601.625 130.812H601.812C602.708 128.354 603.427 126.521 603.969 125.312L618 94.1875H624.562V139ZM669.688 94.1875L653.094 139H647.312L631.062 94.1875H636.906L649.312 129.719C649.708 130.865 650.01 132.188 650.219 133.688H650.344C650.51 132.438 650.854 131.094 651.375 129.656L664.031 94.1875H669.688ZM681.375 122.062V139H676.125V94.1875H688.438C693.229 94.1875 696.938 95.3542 699.562 97.6875C702.208 100.021 703.531 103.312 703.531 107.562C703.531 111.812 702.062 115.292 699.125 118C696.208 120.708 692.26 122.062 687.281 122.062H681.375ZM681.375 98.9375V117.312H686.875C690.5 117.312 693.26 116.49 695.156 114.844C697.073 113.177 698.031 110.833 698.031 107.812C698.031 101.896 694.531 98.9375 687.531 98.9375H681.375Z" fill="black"/>
<rect x="551" y="178" width="178" height="88" rx="9" fill="#BF6DFF" fill-opacity="0.62" stroke="#BF6DFF" stroke-width="2"/>
<rect x="961" y="424" width="178" height="88" rx="9" fill="#CCD012" fill-opacity="0.76" stroke="#CCD012" stroke-width="2"/>
<rect x="141" y="424" width="178" height="88" rx="9" fill="#43DD5C" fill-opacity="0.78" stroke="#43DD5C" stroke-width="2"/>
<path d="M579.562 221.531V230H576.938V207.594H583.094C585.49 207.594 587.344 208.177 588.656 209.344C589.979 210.51 590.641 212.156 590.641 214.281C590.641 216.406 589.906 218.146 588.438 219.5C586.979 220.854 585.005 221.531 582.516 221.531H579.562ZM579.562 209.969V219.156H582.312C584.125 219.156 585.505 218.745 586.453 217.922C587.411 217.089 587.891 215.917 587.891 214.406C587.891 211.448 586.141 209.969 582.641 209.969H579.562ZM602.875 216.594C602.427 216.25 601.781 216.078 600.938 216.078C599.844 216.078 598.927 216.594 598.188 217.625C597.458 218.656 597.094 220.062 597.094 221.844V230H594.531V214H597.094V217.297H597.156C597.521 216.172 598.078 215.297 598.828 214.672C599.578 214.036 600.417 213.719 601.344 213.719C602.01 213.719 602.521 213.792 602.875 213.938V216.594ZM618.516 222.641H607.219C607.26 224.422 607.74 225.797 608.656 226.766C609.573 227.734 610.833 228.219 612.438 228.219C614.24 228.219 615.896 227.625 617.406 226.438V228.844C616 229.865 614.141 230.375 611.828 230.375C609.568 230.375 607.792 229.651 606.5 228.203C605.208 226.745 604.562 224.698 604.562 222.062C604.562 219.573 605.266 217.547 606.672 215.984C608.089 214.411 609.844 213.625 611.938 213.625C614.031 213.625 615.651 214.302 616.797 215.656C617.943 217.01 618.516 218.891 618.516 221.297V222.641ZM615.891 220.469C615.88 218.99 615.521 217.839 614.812 217.016C614.115 216.193 613.141 215.781 611.891 215.781C610.682 215.781 609.656 216.214 608.812 217.078C607.969 217.943 607.448 219.073 607.25 220.469H615.891ZM621.438 229.422V226.672C622.833 227.703 624.37 228.219 626.047 228.219C628.297 228.219 629.422 227.469 629.422 225.969C629.422 225.542 629.323 225.182 629.125 224.891C628.938 224.589 628.677 224.323 628.344 224.094C628.021 223.865 627.635 223.661 627.188 223.484C626.75 223.297 626.276 223.104 625.766 222.906C625.057 222.625 624.432 222.344 623.891 222.062C623.359 221.771 622.911 221.448 622.547 221.094C622.193 220.729 621.922 220.318 621.734 219.859C621.557 219.401 621.469 218.865 621.469 218.25C621.469 217.5 621.641 216.839 621.984 216.266C622.328 215.682 622.786 215.198 623.359 214.812C623.932 214.417 624.583 214.12 625.312 213.922C626.052 213.724 626.812 213.625 627.594 213.625C628.979 213.625 630.219 213.865 631.312 214.344V216.938C630.135 216.167 628.781 215.781 627.25 215.781C626.771 215.781 626.339 215.839 625.953 215.953C625.568 216.057 625.234 216.208 624.953 216.406C624.682 216.604 624.469 216.844 624.312 217.125C624.167 217.396 624.094 217.698 624.094 218.031C624.094 218.448 624.167 218.797 624.312 219.078C624.469 219.359 624.693 219.609 624.984 219.828C625.276 220.047 625.63 220.245 626.047 220.422C626.464 220.599 626.938 220.792 627.469 221C628.177 221.271 628.812 221.552 629.375 221.844C629.938 222.125 630.417 222.448 630.812 222.812C631.208 223.167 631.51 223.578 631.719 224.047C631.938 224.516 632.047 225.073 632.047 225.719C632.047 226.51 631.87 227.198 631.516 227.781C631.172 228.365 630.708 228.849 630.125 229.234C629.542 229.62 628.87 229.906 628.109 230.094C627.349 230.281 626.552 230.375 625.719 230.375C624.073 230.375 622.646 230.057 621.438 229.422ZM648.859 222.641H637.562C637.604 224.422 638.083 225.797 639 226.766C639.917 227.734 641.177 228.219 642.781 228.219C644.583 228.219 646.24 227.625 647.75 226.438V228.844C646.344 229.865 644.484 230.375 642.172 230.375C639.911 230.375 638.135 229.651 636.844 228.203C635.552 226.745 634.906 224.698 634.906 222.062C634.906 219.573 635.609 217.547 637.016 215.984C638.432 214.411 640.188 213.625 642.281 213.625C644.375 213.625 645.995 214.302 647.141 215.656C648.286 217.01 648.859 218.891 648.859 221.297V222.641ZM646.234 220.469C646.224 218.99 645.865 217.839 645.156 217.016C644.458 216.193 643.484 215.781 642.234 215.781C641.026 215.781 640 216.214 639.156 217.078C638.312 217.943 637.792 219.073 637.594 220.469H646.234ZM666.031 230H663.469V220.875C663.469 217.479 662.229 215.781 659.75 215.781C658.469 215.781 657.406 216.266 656.562 217.234C655.729 218.193 655.312 219.406 655.312 220.875V230H652.75V214H655.312V216.656H655.375C656.583 214.635 658.333 213.625 660.625 213.625C662.375 213.625 663.714 214.193 664.641 215.328C665.568 216.453 666.031 218.083 666.031 220.219V230ZM678.297 229.844C677.693 230.177 676.896 230.344 675.906 230.344C673.104 230.344 671.703 228.781 671.703 225.656V216.188H668.953V214H671.703V210.094L674.266 209.266V214H678.297V216.188H674.266V225.203C674.266 226.276 674.448 227.042 674.812 227.5C675.177 227.958 675.781 228.188 676.625 228.188C677.271 228.188 677.828 228.01 678.297 227.656V229.844ZM694.578 222.641H683.281C683.323 224.422 683.802 225.797 684.719 226.766C685.635 227.734 686.896 228.219 688.5 228.219C690.302 228.219 691.958 227.625 693.469 226.438V228.844C692.062 229.865 690.203 230.375 687.891 230.375C685.63 230.375 683.854 229.651 682.562 228.203C681.271 226.745 680.625 224.698 680.625 222.062C680.625 219.573 681.328 217.547 682.734 215.984C684.151 214.411 685.906 213.625 688 213.625C690.094 213.625 691.714 214.302 692.859 215.656C694.005 217.01 694.578 218.891 694.578 221.297V222.641ZM691.953 220.469C691.943 218.99 691.583 217.839 690.875 217.016C690.177 216.193 689.203 215.781 687.953 215.781C686.745 215.781 685.719 216.214 684.875 217.078C684.031 217.943 683.51 219.073 683.312 220.469H691.953ZM706.812 216.594C706.365 216.25 705.719 216.078 704.875 216.078C703.781 216.078 702.865 216.594 702.125 217.625C701.396 218.656 701.031 220.062 701.031 221.844V230H698.469V214H701.031V217.297H701.094C701.458 216.172 702.016 215.297 702.766 214.672C703.516 214.036 704.354 213.719 705.281 213.719C705.948 213.719 706.458 213.792 706.812 213.938V216.594Z" fill="black"/>
<path d="M210.781 476H208.172V460.969C208.172 459.781 208.245 458.328 208.391 456.609H208.328C208.078 457.62 207.854 458.344 207.656 458.781L200 476H198.719L191.078 458.906C190.859 458.406 190.635 457.641 190.406 456.609H190.344C190.427 457.505 190.469 458.969 190.469 461V476H187.938V453.594H191.406L198.281 469.219C198.812 470.417 199.156 471.312 199.312 471.906H199.406C199.854 470.677 200.214 469.76 200.484 469.156L207.5 453.594H210.781V476ZM223.031 476.375C220.667 476.375 218.776 475.63 217.359 474.141C215.953 472.641 215.25 470.656 215.25 468.188C215.25 465.5 215.984 463.401 217.453 461.891C218.922 460.38 220.906 459.625 223.406 459.625C225.792 459.625 227.651 460.359 228.984 461.828C230.328 463.297 231 465.333 231 467.938C231 470.49 230.276 472.536 228.828 474.078C227.391 475.609 225.458 476.375 223.031 476.375ZM223.219 461.781C221.573 461.781 220.271 462.344 219.312 463.469C218.354 464.583 217.875 466.125 217.875 468.094C217.875 469.99 218.359 471.484 219.328 472.578C220.297 473.672 221.594 474.219 223.219 474.219C224.875 474.219 226.146 473.682 227.031 472.609C227.927 471.536 228.375 470.01 228.375 468.031C228.375 466.031 227.927 464.49 227.031 463.406C226.146 462.323 224.875 461.781 223.219 461.781ZM248.75 476H246.188V473.281H246.125C244.938 475.344 243.104 476.375 240.625 476.375C238.615 476.375 237.005 475.661 235.797 474.234C234.599 472.797 234 470.844 234 468.375C234 465.729 234.667 463.609 236 462.016C237.333 460.422 239.109 459.625 241.328 459.625C243.526 459.625 245.125 460.49 246.125 462.219H246.188V452.312H248.75V476ZM246.188 468.766V466.406C246.188 465.115 245.76 464.021 244.906 463.125C244.052 462.229 242.969 461.781 241.656 461.781C240.094 461.781 238.865 462.354 237.969 463.5C237.073 464.646 236.625 466.229 236.625 468.25C236.625 470.094 237.052 471.552 237.906 472.625C238.771 473.688 239.927 474.219 241.375 474.219C242.802 474.219 243.958 473.703 244.844 472.672C245.74 471.641 246.188 470.339 246.188 468.766ZM266.797 468.641H255.5C255.542 470.422 256.021 471.797 256.938 472.766C257.854 473.734 259.115 474.219 260.719 474.219C262.521 474.219 264.177 473.625 265.688 472.438V474.844C264.281 475.865 262.422 476.375 260.109 476.375C257.849 476.375 256.073 475.651 254.781 474.203C253.49 472.745 252.844 470.698 252.844 468.062C252.844 465.573 253.547 463.547 254.953 461.984C256.37 460.411 258.125 459.625 260.219 459.625C262.312 459.625 263.932 460.302 265.078 461.656C266.224 463.01 266.797 464.891 266.797 467.297V468.641ZM264.172 466.469C264.161 464.99 263.802 463.839 263.094 463.016C262.396 462.193 261.422 461.781 260.172 461.781C258.964 461.781 257.938 462.214 257.094 463.078C256.25 463.943 255.729 465.073 255.531 466.469H264.172ZM273.25 476H270.688V452.312H273.25V476Z" fill="black"/>
<path d="M1035.59 453.594L1027.3 476H1024.41L1016.28 453.594H1019.2L1025.41 471.359C1025.6 471.932 1025.76 472.594 1025.86 473.344H1025.92C1026.01 472.719 1026.18 472.047 1026.44 471.328L1032.77 453.594H1035.59ZM1039.78 455.938C1039.32 455.938 1038.93 455.781 1038.61 455.469C1038.29 455.156 1038.12 454.76 1038.12 454.281C1038.12 453.802 1038.29 453.406 1038.61 453.094C1038.93 452.771 1039.32 452.609 1039.78 452.609C1040.25 452.609 1040.65 452.771 1040.97 453.094C1041.3 453.406 1041.47 453.802 1041.47 454.281C1041.47 454.74 1041.3 455.13 1040.97 455.453C1040.65 455.776 1040.25 455.938 1039.78 455.938ZM1041.03 476H1038.47V460H1041.03V476ZM1059.08 468.641H1047.78C1047.82 470.422 1048.3 471.797 1049.22 472.766C1050.14 473.734 1051.4 474.219 1053 474.219C1054.8 474.219 1056.46 473.625 1057.97 472.438V474.844C1056.56 475.865 1054.7 476.375 1052.39 476.375C1050.13 476.375 1048.35 475.651 1047.06 474.203C1045.77 472.745 1045.12 470.698 1045.12 468.062C1045.12 465.573 1045.83 463.547 1047.23 461.984C1048.65 460.411 1050.41 459.625 1052.5 459.625C1054.59 459.625 1056.21 460.302 1057.36 461.656C1058.51 463.01 1059.08 464.891 1059.08 467.297V468.641ZM1056.45 466.469C1056.44 464.99 1056.08 463.839 1055.38 463.016C1054.68 462.193 1053.7 461.781 1052.45 461.781C1051.24 461.781 1050.22 462.214 1049.38 463.078C1048.53 463.943 1048.01 465.073 1047.81 466.469H1056.45ZM1083.12 460L1078.33 476H1075.67L1072.38 464.547C1072.25 464.109 1072.17 463.615 1072.12 463.062H1072.06C1072.03 463.438 1071.92 463.922 1071.73 464.516L1068.16 476H1065.59L1060.75 460H1063.44L1066.75 472.031C1066.85 472.396 1066.93 472.875 1066.97 473.469H1067.09C1067.12 473.01 1067.22 472.521 1067.38 472L1071.06 460H1073.41L1076.72 472.062C1076.82 472.448 1076.9 472.927 1076.95 473.5H1077.08C1077.1 473.094 1077.19 472.615 1077.34 472.062L1080.59 460H1083.12Z" fill="black"/>
<path d="M217.5 207V423" stroke="black" stroke-width="2"/>
<path d="M244.5 234V423" stroke="black" stroke-width="2"/>
<path d="M243.5 234.5H550" stroke="black" stroke-width="2"/>
<path d="M216.5 207.5H550" stroke="black" stroke-width="2"/>
<path d="M1062.5 207V423" stroke="black" stroke-width="2"/>
<path d="M1035.5 234V423" stroke="black" stroke-width="2"/>
<path d="M1036.5 234.5H730" stroke="black" stroke-width="2"/>
<path d="M1063.5 207.5H730" stroke="black" stroke-width="2"/>
<path d="M728 207.5L739.25 201.005V213.995L728 207.5Z" fill="black"/>
<path d="M1035.5 425L1029 413.75H1042L1035.5 425Z" fill="black"/>
<path d="M244.5 425L238.005 413.75H250.995L244.5 425Z" fill="black"/>
<path d="M552 207.5L540.75 213.995V201.005L552 207.5Z" fill="black"/>
<path d="M299.145 286.637C299.145 291.749 296.838 294.305 292.226 294.305C287.808 294.305 285.599 291.846 285.599 286.929V275.795H287.731V286.789C287.731 290.521 289.306 292.388 292.454 292.388C295.493 292.388 297.012 290.585 297.012 286.979V275.795H299.145V286.637ZM305.556 292.121H305.505V299.979H303.423V281H305.505V283.285H305.556C306.58 281.559 308.078 280.695 310.05 280.695C311.726 280.695 313.033 281.279 313.973 282.447C314.912 283.607 315.382 285.164 315.382 287.119C315.382 289.294 314.853 291.038 313.795 292.35C312.737 293.653 311.29 294.305 309.453 294.305C307.769 294.305 306.47 293.577 305.556 292.121ZM305.505 286.878V288.693C305.505 289.768 305.852 290.682 306.546 291.436C307.248 292.18 308.137 292.553 309.212 292.553C310.473 292.553 311.459 292.07 312.17 291.105C312.889 290.141 313.249 288.799 313.249 287.081C313.249 285.634 312.915 284.5 312.246 283.679C311.577 282.858 310.672 282.447 309.529 282.447C308.319 282.447 307.346 282.87 306.609 283.717C305.873 284.555 305.505 285.608 305.505 286.878ZM329.804 294H327.722V291.791H327.671C326.706 293.467 325.216 294.305 323.202 294.305C321.569 294.305 320.261 293.725 319.279 292.565C318.306 291.397 317.819 289.811 317.819 287.805C317.819 285.655 318.361 283.933 319.444 282.638C320.528 281.343 321.971 280.695 323.773 280.695C325.559 280.695 326.858 281.398 327.671 282.803H327.722V274.754H329.804V294ZM327.722 288.122V286.205C327.722 285.156 327.375 284.267 326.681 283.539C325.987 282.811 325.106 282.447 324.04 282.447C322.771 282.447 321.772 282.913 321.044 283.844C320.316 284.775 319.952 286.061 319.952 287.703C319.952 289.201 320.299 290.386 320.993 291.258C321.696 292.121 322.635 292.553 323.812 292.553C324.971 292.553 325.91 292.134 326.63 291.296C327.358 290.458 327.722 289.4 327.722 288.122ZM343.324 294H341.242V291.969H341.191C340.286 293.526 338.953 294.305 337.192 294.305C335.897 294.305 334.882 293.962 334.146 293.276C333.418 292.591 333.054 291.681 333.054 290.547C333.054 288.118 334.484 286.704 337.345 286.307L341.242 285.761C341.242 283.552 340.349 282.447 338.563 282.447C336.998 282.447 335.584 282.98 334.323 284.047V281.914C335.601 281.102 337.074 280.695 338.741 280.695C341.797 280.695 343.324 282.312 343.324 285.545V294ZM341.242 287.424L338.106 287.855C337.142 287.991 336.414 288.232 335.923 288.579C335.432 288.918 335.187 289.523 335.187 290.395C335.187 291.029 335.411 291.55 335.859 291.956C336.316 292.354 336.922 292.553 337.675 292.553C338.707 292.553 339.558 292.193 340.227 291.474C340.904 290.746 341.242 289.827 341.242 288.719V287.424ZM353.277 293.873C352.786 294.144 352.139 294.279 351.335 294.279C349.058 294.279 347.92 293.01 347.92 290.471V282.777H345.686V281H347.92V277.826L350.002 277.153V281H353.277V282.777H350.002V290.103C350.002 290.974 350.15 291.596 350.446 291.969C350.743 292.341 351.233 292.527 351.919 292.527C352.444 292.527 352.896 292.383 353.277 292.096V293.873ZM366.506 288.021H357.327C357.361 289.468 357.75 290.585 358.495 291.372C359.24 292.159 360.264 292.553 361.567 292.553C363.032 292.553 364.377 292.07 365.604 291.105V293.061C364.462 293.89 362.951 294.305 361.072 294.305C359.236 294.305 357.793 293.716 356.743 292.54C355.694 291.355 355.169 289.692 355.169 287.551C355.169 285.528 355.74 283.882 356.883 282.612C358.034 281.334 359.46 280.695 361.161 280.695C362.862 280.695 364.178 281.245 365.109 282.346C366.04 283.446 366.506 284.974 366.506 286.929V288.021ZM364.373 286.256C364.365 285.054 364.073 284.119 363.497 283.45C362.93 282.782 362.139 282.447 361.123 282.447C360.141 282.447 359.308 282.799 358.622 283.501C357.937 284.203 357.513 285.122 357.353 286.256H364.373ZM309.644 329H307.562V321.535C307.562 320.096 307.337 319.055 306.889 318.412C306.449 317.769 305.704 317.447 304.654 317.447C303.766 317.447 303.008 317.854 302.382 318.666C301.764 319.479 301.455 320.452 301.455 321.586V329H299.373V321.281C299.373 318.725 298.387 317.447 296.415 317.447C295.501 317.447 294.748 317.832 294.155 318.603C293.563 319.364 293.267 320.359 293.267 321.586V329H291.185V316H293.267V318.057H293.317C294.24 316.482 295.586 315.695 297.354 315.695C298.243 315.695 299.018 315.945 299.678 316.444C300.338 316.935 300.791 317.583 301.036 318.387C302.001 316.592 303.44 315.695 305.353 315.695C308.213 315.695 309.644 317.46 309.644 320.989V329ZM319.013 329.305C317.091 329.305 315.555 328.7 314.404 327.489C313.262 326.271 312.69 324.658 312.69 322.652C312.69 320.469 313.287 318.763 314.48 317.536C315.674 316.309 317.286 315.695 319.317 315.695C321.256 315.695 322.766 316.292 323.85 317.485C324.941 318.679 325.487 320.333 325.487 322.449C325.487 324.523 324.899 326.186 323.723 327.438C322.555 328.683 320.985 329.305 319.013 329.305ZM319.165 317.447C317.828 317.447 316.77 317.904 315.991 318.818C315.213 319.724 314.823 320.977 314.823 322.576C314.823 324.117 315.217 325.331 316.004 326.22C316.791 327.108 317.845 327.553 319.165 327.553C320.511 327.553 321.543 327.117 322.263 326.245C322.991 325.373 323.354 324.133 323.354 322.525C323.354 320.9 322.991 319.648 322.263 318.768C321.543 317.887 320.511 317.447 319.165 317.447ZM339.909 329H337.827V326.791H337.776C336.812 328.467 335.322 329.305 333.308 329.305C331.674 329.305 330.367 328.725 329.385 327.565C328.411 326.397 327.925 324.811 327.925 322.805C327.925 320.655 328.466 318.933 329.55 317.638C330.633 316.343 332.076 315.695 333.879 315.695C335.665 315.695 336.964 316.398 337.776 317.803H337.827V309.754H339.909V329ZM337.827 323.122V321.205C337.827 320.156 337.48 319.267 336.786 318.539C336.092 317.811 335.212 317.447 334.146 317.447C332.876 317.447 331.877 317.913 331.149 318.844C330.422 319.775 330.058 321.061 330.058 322.703C330.058 324.201 330.405 325.386 331.099 326.258C331.801 327.121 332.741 327.553 333.917 327.553C335.076 327.553 336.016 327.134 336.735 326.296C337.463 325.458 337.827 324.4 337.827 323.122ZM354.572 323.021H345.394C345.427 324.468 345.817 325.585 346.562 326.372C347.306 327.159 348.33 327.553 349.634 327.553C351.098 327.553 352.444 327.07 353.671 326.105V328.061C352.528 328.89 351.018 329.305 349.139 329.305C347.302 329.305 345.859 328.716 344.81 327.54C343.76 326.355 343.235 324.692 343.235 322.551C343.235 320.528 343.807 318.882 344.949 317.612C346.1 316.334 347.526 315.695 349.228 315.695C350.929 315.695 352.245 316.245 353.176 317.346C354.107 318.446 354.572 319.974 354.572 321.929V323.021ZM352.439 321.256C352.431 320.054 352.139 319.119 351.563 318.45C350.996 317.782 350.205 317.447 349.189 317.447C348.208 317.447 347.374 317.799 346.688 318.501C346.003 319.203 345.58 320.122 345.419 321.256H352.439ZM359.815 329H357.733V309.754H359.815V329Z" fill="black"/>
<path d="M139.542 258H137.422V245.787C137.422 244.822 137.481 243.642 137.6 242.245H137.549C137.346 243.066 137.164 243.654 137.003 244.01L130.782 258H129.741L123.533 244.111C123.355 243.705 123.174 243.083 122.987 242.245H122.937C123.004 242.973 123.038 244.162 123.038 245.812V258H120.981V239.795H123.8L129.386 252.49C129.817 253.464 130.097 254.191 130.224 254.674H130.3C130.664 253.675 130.956 252.93 131.176 252.439L136.876 239.795H139.542V258ZM149.495 258.305C147.574 258.305 146.038 257.7 144.887 256.489C143.744 255.271 143.173 253.658 143.173 251.652C143.173 249.469 143.77 247.763 144.963 246.536C146.156 245.309 147.769 244.695 149.8 244.695C151.738 244.695 153.249 245.292 154.332 246.485C155.424 247.679 155.97 249.333 155.97 251.449C155.97 253.523 155.382 255.186 154.205 256.438C153.037 257.683 151.467 258.305 149.495 258.305ZM149.647 246.447C148.31 246.447 147.252 246.904 146.474 247.818C145.695 248.724 145.306 249.977 145.306 251.576C145.306 253.117 145.699 254.331 146.486 255.22C147.273 256.108 148.327 256.553 149.647 256.553C150.993 256.553 152.026 256.117 152.745 255.245C153.473 254.373 153.837 253.133 153.837 251.525C153.837 249.9 153.473 248.648 152.745 247.768C152.026 246.887 150.993 246.447 149.647 246.447ZM170.392 258H168.31V255.791H168.259C167.294 257.467 165.804 258.305 163.79 258.305C162.157 258.305 160.849 257.725 159.867 256.565C158.894 255.397 158.407 253.811 158.407 251.805C158.407 249.655 158.949 247.933 160.032 246.638C161.116 245.343 162.559 244.695 164.361 244.695C166.147 244.695 167.446 245.398 168.259 246.803H168.31V238.754H170.392V258ZM168.31 252.122V250.205C168.31 249.156 167.963 248.267 167.269 247.539C166.575 246.811 165.694 246.447 164.628 246.447C163.358 246.447 162.36 246.913 161.632 247.844C160.904 248.775 160.54 250.061 160.54 251.703C160.54 253.201 160.887 254.386 161.581 255.258C162.284 256.121 163.223 256.553 164.399 256.553C165.559 256.553 166.498 256.134 167.218 255.296C167.946 254.458 168.31 253.4 168.31 252.122ZM185.055 252.021H175.876C175.91 253.468 176.299 254.585 177.044 255.372C177.789 256.159 178.813 256.553 180.116 256.553C181.58 256.553 182.926 256.07 184.153 255.105V257.061C183.011 257.89 181.5 258.305 179.621 258.305C177.785 258.305 176.341 257.716 175.292 256.54C174.243 255.355 173.718 253.692 173.718 251.551C173.718 249.528 174.289 247.882 175.432 246.612C176.583 245.334 178.009 244.695 179.71 244.695C181.411 244.695 182.727 245.245 183.658 246.346C184.589 247.446 185.055 248.974 185.055 250.929V252.021ZM182.922 250.256C182.913 249.054 182.621 248.119 182.046 247.45C181.479 246.782 180.688 246.447 179.672 246.447C178.69 246.447 177.856 246.799 177.171 247.501C176.485 248.203 176.062 249.122 175.901 250.256H182.922ZM190.298 258H188.216V238.754H190.298V258ZM117.008 292.403C116.009 293.004 114.824 293.305 113.453 293.305C111.6 293.305 110.102 292.704 108.959 291.502C107.825 290.292 107.258 288.726 107.258 286.805C107.258 284.663 107.871 282.945 109.099 281.65C110.326 280.347 111.964 279.695 114.012 279.695C115.154 279.695 116.161 279.907 117.033 280.33V282.463C116.068 281.786 115.036 281.447 113.936 281.447C112.607 281.447 111.515 281.925 110.66 282.882C109.814 283.83 109.391 285.078 109.391 286.627C109.391 288.15 109.788 289.352 110.584 290.232C111.388 291.113 112.463 291.553 113.809 291.553C114.943 291.553 116.009 291.176 117.008 290.423V292.403ZM130.947 293H128.865V285.51C128.865 282.801 127.858 281.447 125.844 281.447C124.828 281.447 123.973 281.841 123.279 282.628C122.585 283.407 122.238 284.41 122.238 285.637V293H120.156V273.754H122.238V282.158H122.289C123.288 280.516 124.71 279.695 126.555 279.695C129.483 279.695 130.947 281.46 130.947 284.989V293ZM144.188 293H142.106V290.969H142.056C141.15 292.526 139.817 293.305 138.057 293.305C136.762 293.305 135.746 292.962 135.01 292.276C134.282 291.591 133.918 290.681 133.918 289.547C133.918 287.118 135.348 285.704 138.209 285.307L142.106 284.761C142.106 282.552 141.214 281.447 139.428 281.447C137.862 281.447 136.449 281.98 135.188 283.047V280.914C136.465 280.102 137.938 279.695 139.605 279.695C142.661 279.695 144.188 281.312 144.188 284.545V293ZM142.106 286.424L138.971 286.855C138.006 286.991 137.278 287.232 136.787 287.579C136.296 287.918 136.051 288.523 136.051 289.395C136.051 290.029 136.275 290.55 136.724 290.956C137.181 291.354 137.786 291.553 138.539 291.553C139.572 291.553 140.422 291.193 141.091 290.474C141.768 289.746 142.106 288.827 142.106 287.719V286.424ZM158.902 293H156.82V285.586C156.82 282.827 155.813 281.447 153.799 281.447C152.758 281.447 151.895 281.841 151.209 282.628C150.532 283.407 150.193 284.393 150.193 285.586V293H148.111V280H150.193V282.158H150.244C151.226 280.516 152.648 279.695 154.51 279.695C155.932 279.695 157.019 280.157 157.772 281.079C158.526 281.993 158.902 283.318 158.902 285.053V293ZM173.934 291.959C173.934 296.732 171.648 299.119 167.078 299.119C165.47 299.119 164.065 298.814 162.863 298.205V296.123C164.327 296.936 165.724 297.342 167.053 297.342C170.252 297.342 171.852 295.641 171.852 292.238V290.816H171.801C170.811 292.475 169.321 293.305 167.332 293.305C165.715 293.305 164.412 292.729 163.422 291.578C162.44 290.419 161.949 288.866 161.949 286.919C161.949 284.71 162.478 282.954 163.536 281.65C164.603 280.347 166.058 279.695 167.903 279.695C169.655 279.695 170.954 280.398 171.801 281.803H171.852V280H173.934V291.959ZM171.852 287.122V285.205C171.852 284.173 171.5 283.288 170.798 282.552C170.104 281.815 169.236 281.447 168.195 281.447C166.909 281.447 165.902 281.917 165.174 282.856C164.446 283.787 164.082 285.095 164.082 286.779C164.082 288.227 164.429 289.386 165.123 290.258C165.826 291.121 166.752 291.553 167.903 291.553C169.071 291.553 170.019 291.138 170.747 290.309C171.483 289.479 171.852 288.417 171.852 287.122ZM188.597 287.021H179.418C179.452 288.468 179.841 289.585 180.586 290.372C181.331 291.159 182.355 291.553 183.658 291.553C185.122 291.553 186.468 291.07 187.695 290.105V292.061C186.553 292.89 185.042 293.305 183.163 293.305C181.326 293.305 179.883 292.716 178.834 291.54C177.785 290.355 177.26 288.692 177.26 286.551C177.26 284.528 177.831 282.882 178.974 281.612C180.125 280.334 181.551 279.695 183.252 279.695C184.953 279.695 186.269 280.245 187.2 281.346C188.131 282.446 188.597 283.974 188.597 285.929V287.021ZM186.464 285.256C186.455 284.054 186.163 283.119 185.588 282.45C185.021 281.782 184.229 281.447 183.214 281.447C182.232 281.447 181.398 281.799 180.713 282.501C180.027 283.203 179.604 284.122 179.443 285.256H186.464ZM202.854 293H200.771V290.791H200.721C199.756 292.467 198.266 293.305 196.252 293.305C194.618 293.305 193.311 292.725 192.329 291.565C191.356 290.397 190.869 288.811 190.869 286.805C190.869 284.655 191.411 282.933 192.494 281.638C193.577 280.343 195.021 279.695 196.823 279.695C198.609 279.695 199.908 280.398 200.721 281.803H200.771V273.754H202.854V293ZM200.771 287.122V285.205C200.771 284.156 200.424 283.267 199.73 282.539C199.036 281.811 198.156 281.447 197.09 281.447C195.82 281.447 194.822 281.913 194.094 282.844C193.366 283.775 193.002 285.061 193.002 286.703C193.002 288.201 193.349 289.386 194.043 290.258C194.745 291.121 195.685 291.553 196.861 291.553C198.021 291.553 198.96 291.134 199.68 290.296C200.408 289.458 200.771 288.4 200.771 287.122Z" fill="black"/>
<path d="M1114.42 245.637C1114.42 250.749 1112.11 253.305 1107.5 253.305C1103.08 253.305 1100.87 250.846 1100.87 245.929V234.795H1103.01V245.789C1103.01 249.521 1104.58 251.388 1107.73 251.388C1110.77 251.388 1112.29 249.585 1112.29 245.979V234.795H1114.42V245.637ZM1117.91 252.53V250.296C1119.05 251.134 1120.29 251.553 1121.66 251.553C1123.48 251.553 1124.4 250.943 1124.4 249.725C1124.4 249.378 1124.32 249.086 1124.16 248.849C1124 248.603 1123.79 248.387 1123.52 248.201C1123.26 248.015 1122.95 247.85 1122.58 247.706C1122.23 247.554 1121.84 247.397 1121.43 247.236C1120.85 247.008 1120.34 246.779 1119.9 246.551C1119.47 246.314 1119.11 246.051 1118.81 245.764C1118.52 245.467 1118.3 245.133 1118.15 244.761C1118.01 244.388 1117.94 243.952 1117.94 243.453C1117.94 242.844 1118.08 242.306 1118.36 241.841C1118.63 241.367 1119.01 240.973 1119.47 240.66C1119.94 240.339 1120.47 240.097 1121.06 239.937C1121.66 239.776 1122.28 239.695 1122.91 239.695C1124.04 239.695 1125.05 239.89 1125.93 240.279V242.387C1124.98 241.76 1123.88 241.447 1122.63 241.447C1122.24 241.447 1121.89 241.494 1121.58 241.587C1121.27 241.672 1121 241.794 1120.77 241.955C1120.55 242.116 1120.37 242.311 1120.25 242.539C1120.13 242.759 1120.07 243.005 1120.07 243.275C1120.07 243.614 1120.13 243.897 1120.25 244.126C1120.37 244.354 1120.56 244.558 1120.79 244.735C1121.03 244.913 1121.32 245.074 1121.66 245.218C1121.99 245.362 1122.38 245.518 1122.81 245.688C1123.39 245.908 1123.9 246.136 1124.36 246.373C1124.82 246.602 1125.21 246.864 1125.53 247.16C1125.85 247.448 1126.1 247.782 1126.26 248.163C1126.44 248.544 1126.53 248.997 1126.53 249.521C1126.53 250.165 1126.39 250.723 1126.1 251.197C1125.82 251.671 1125.44 252.065 1124.97 252.378C1124.5 252.691 1123.95 252.924 1123.33 253.076C1122.71 253.229 1122.07 253.305 1121.39 253.305C1120.05 253.305 1118.89 253.047 1117.91 252.53ZM1140.19 247.021H1131.01C1131.05 248.468 1131.44 249.585 1132.18 250.372C1132.93 251.159 1133.95 251.553 1135.25 251.553C1136.72 251.553 1138.06 251.07 1139.29 250.105V252.061C1138.15 252.89 1136.64 253.305 1134.76 253.305C1132.92 253.305 1131.48 252.716 1130.43 251.54C1129.38 250.355 1128.85 248.692 1128.85 246.551C1128.85 244.528 1129.43 242.882 1130.57 241.612C1131.72 240.334 1133.15 239.695 1134.85 239.695C1136.55 239.695 1137.86 240.245 1138.79 241.346C1139.73 242.446 1140.19 243.974 1140.19 245.929V247.021ZM1138.06 245.256C1138.05 244.054 1137.76 243.119 1137.18 242.45C1136.62 241.782 1135.82 241.447 1134.81 241.447C1133.83 241.447 1132.99 241.799 1132.31 242.501C1131.62 243.203 1131.2 244.122 1131.04 245.256H1138.06ZM1150.13 242.107C1149.77 241.828 1149.24 241.688 1148.56 241.688C1147.67 241.688 1146.92 242.107 1146.32 242.945C1145.73 243.783 1145.43 244.926 1145.43 246.373V253H1143.35V240H1145.43V242.679H1145.49C1145.78 241.765 1146.23 241.054 1146.84 240.546C1147.45 240.03 1148.13 239.771 1148.89 239.771C1149.43 239.771 1149.84 239.831 1150.13 239.949V242.107ZM1095.24 288H1093.16V285.969H1093.1C1092.2 287.526 1090.87 288.305 1089.11 288.305C1087.81 288.305 1086.79 287.962 1086.06 287.276C1085.33 286.591 1084.97 285.681 1084.97 284.547C1084.97 282.118 1086.4 280.704 1089.26 280.307L1093.16 279.761C1093.16 277.552 1092.26 276.447 1090.48 276.447C1088.91 276.447 1087.5 276.98 1086.24 278.047V275.914C1087.51 275.102 1088.99 274.695 1090.65 274.695C1093.71 274.695 1095.24 276.312 1095.24 279.545V288ZM1093.16 281.424L1090.02 281.855C1089.05 281.991 1088.33 282.232 1087.84 282.579C1087.35 282.918 1087.1 283.523 1087.1 284.395C1087.1 285.029 1087.32 285.55 1087.77 285.956C1088.23 286.354 1088.83 286.553 1089.59 286.553C1090.62 286.553 1091.47 286.193 1092.14 285.474C1092.82 284.746 1093.16 283.827 1093.16 282.719V281.424ZM1108.02 287.403C1107.02 288.004 1105.84 288.305 1104.47 288.305C1102.61 288.305 1101.12 287.704 1099.97 286.502C1098.84 285.292 1098.27 283.726 1098.27 281.805C1098.27 279.663 1098.89 277.945 1100.11 276.65C1101.34 275.347 1102.98 274.695 1105.03 274.695C1106.17 274.695 1107.18 274.907 1108.05 275.33V277.463C1107.08 276.786 1106.05 276.447 1104.95 276.447C1103.62 276.447 1102.53 276.925 1101.67 277.882C1100.83 278.83 1100.4 280.078 1100.4 281.627C1100.4 283.15 1100.8 284.352 1101.6 285.232C1102.4 286.113 1103.48 286.553 1104.82 286.553C1105.96 286.553 1107.02 286.176 1108.02 285.423V287.403ZM1117.2 287.873C1116.71 288.144 1116.06 288.279 1115.26 288.279C1112.98 288.279 1111.84 287.01 1111.84 284.471V276.777H1109.61V275H1111.84V271.826L1113.92 271.153V275H1117.2V276.777H1113.92V284.103C1113.92 284.974 1114.07 285.596 1114.37 285.969C1114.67 286.341 1115.16 286.527 1115.84 286.527C1116.37 286.527 1116.82 286.383 1117.2 286.096V287.873ZM1121.05 271.699C1120.67 271.699 1120.36 271.572 1120.09 271.318C1119.83 271.064 1119.7 270.743 1119.7 270.354C1119.7 269.964 1119.83 269.643 1120.09 269.389C1120.36 269.126 1120.67 268.995 1121.05 268.995C1121.43 268.995 1121.75 269.126 1122.01 269.389C1122.28 269.643 1122.42 269.964 1122.42 270.354C1122.42 270.726 1122.28 271.043 1122.01 271.306C1121.75 271.568 1121.43 271.699 1121.05 271.699ZM1122.06 288H1119.98V275H1122.06V288ZM1131.71 288.305C1129.79 288.305 1128.25 287.7 1127.1 286.489C1125.96 285.271 1125.39 283.658 1125.39 281.652C1125.39 279.469 1125.99 277.763 1127.18 276.536C1128.37 275.309 1129.98 274.695 1132.02 274.695C1133.95 274.695 1135.46 275.292 1136.55 276.485C1137.64 277.679 1138.19 279.333 1138.19 281.449C1138.19 283.523 1137.6 285.186 1136.42 286.438C1135.25 287.683 1133.68 288.305 1131.71 288.305ZM1131.86 276.447C1130.53 276.447 1129.47 276.904 1128.69 277.818C1127.91 278.724 1127.52 279.977 1127.52 281.576C1127.52 283.117 1127.92 284.331 1128.7 285.22C1129.49 286.108 1130.54 286.553 1131.86 286.553C1133.21 286.553 1134.24 286.117 1134.96 285.245C1135.69 284.373 1136.05 283.133 1136.05 281.525C1136.05 279.9 1135.69 278.648 1134.96 277.768C1134.24 276.887 1133.21 276.447 1131.86 276.447ZM1152.3 288H1150.22V280.586C1150.22 277.827 1149.21 276.447 1147.2 276.447C1146.16 276.447 1145.29 276.841 1144.61 277.628C1143.93 278.407 1143.59 279.393 1143.59 280.586V288H1141.51V275H1143.59V277.158H1143.64C1144.63 275.516 1146.05 274.695 1147.91 274.695C1149.33 274.695 1150.42 275.157 1151.17 276.079C1151.93 276.993 1152.3 278.318 1152.3 280.053V288ZM1155.45 287.53V285.296C1156.59 286.134 1157.83 286.553 1159.2 286.553C1161.02 286.553 1161.94 285.943 1161.94 284.725C1161.94 284.378 1161.86 284.086 1161.7 283.849C1161.54 283.603 1161.33 283.387 1161.06 283.201C1160.8 283.015 1160.49 282.85 1160.12 282.706C1159.77 282.554 1159.38 282.397 1158.97 282.236C1158.39 282.008 1157.88 281.779 1157.44 281.551C1157.01 281.314 1156.65 281.051 1156.35 280.764C1156.06 280.467 1155.84 280.133 1155.69 279.761C1155.55 279.388 1155.48 278.952 1155.48 278.453C1155.48 277.844 1155.62 277.306 1155.9 276.841C1156.17 276.367 1156.55 275.973 1157.01 275.66C1157.48 275.339 1158.01 275.097 1158.6 274.937C1159.2 274.776 1159.82 274.695 1160.45 274.695C1161.58 274.695 1162.59 274.89 1163.47 275.279V277.387C1162.52 276.76 1161.42 276.447 1160.17 276.447C1159.78 276.447 1159.43 276.494 1159.12 276.587C1158.81 276.672 1158.54 276.794 1158.31 276.955C1158.09 277.116 1157.91 277.311 1157.79 277.539C1157.67 277.759 1157.61 278.005 1157.61 278.275C1157.61 278.614 1157.67 278.897 1157.79 279.126C1157.91 279.354 1158.1 279.558 1158.33 279.735C1158.57 279.913 1158.86 280.074 1159.2 280.218C1159.53 280.362 1159.92 280.518 1160.35 280.688C1160.93 280.908 1161.44 281.136 1161.9 281.373C1162.36 281.602 1162.75 281.864 1163.07 282.16C1163.39 282.448 1163.64 282.782 1163.8 283.163C1163.98 283.544 1164.07 283.997 1164.07 284.521C1164.07 285.165 1163.93 285.723 1163.64 286.197C1163.36 286.671 1162.98 287.065 1162.51 287.378C1162.04 287.691 1161.49 287.924 1160.87 288.076C1160.25 288.229 1159.61 288.305 1158.93 288.305C1157.59 288.305 1156.43 288.047 1155.45 287.53Z" fill="black"/>
<path d="M940.145 272.637C940.145 277.749 937.838 280.305 933.226 280.305C928.808 280.305 926.599 277.846 926.599 272.929V261.795H928.731V272.789C928.731 276.521 930.306 278.388 933.454 278.388C936.493 278.388 938.012 276.585 938.012 272.979V261.795H940.145V272.637ZM946.556 278.121H946.505V285.979H944.423V267H946.505V269.285H946.556C947.58 267.559 949.078 266.695 951.05 266.695C952.726 266.695 954.033 267.279 954.973 268.447C955.912 269.607 956.382 271.164 956.382 273.119C956.382 275.294 955.853 277.038 954.795 278.35C953.737 279.653 952.29 280.305 950.453 280.305C948.769 280.305 947.47 279.577 946.556 278.121ZM946.505 272.878V274.693C946.505 275.768 946.852 276.682 947.546 277.436C948.248 278.18 949.137 278.553 950.212 278.553C951.473 278.553 952.459 278.07 953.17 277.105C953.889 276.141 954.249 274.799 954.249 273.081C954.249 271.634 953.915 270.5 953.246 269.679C952.577 268.858 951.672 268.447 950.529 268.447C949.319 268.447 948.346 268.87 947.609 269.717C946.873 270.555 946.505 271.608 946.505 272.878ZM970.804 280H968.722V277.791H968.671C967.706 279.467 966.216 280.305 964.202 280.305C962.569 280.305 961.261 279.725 960.279 278.565C959.306 277.397 958.819 275.811 958.819 273.805C958.819 271.655 959.361 269.933 960.444 268.638C961.528 267.343 962.971 266.695 964.773 266.695C966.559 266.695 967.858 267.398 968.671 268.803H968.722V260.754H970.804V280ZM968.722 274.122V272.205C968.722 271.156 968.375 270.267 967.681 269.539C966.987 268.811 966.106 268.447 965.04 268.447C963.771 268.447 962.772 268.913 962.044 269.844C961.316 270.775 960.952 272.061 960.952 273.703C960.952 275.201 961.299 276.386 961.993 277.258C962.696 278.121 963.635 278.553 964.812 278.553C965.971 278.553 966.91 278.134 967.63 277.296C968.358 276.458 968.722 275.4 968.722 274.122ZM984.324 280H982.242V277.969H982.191C981.286 279.526 979.953 280.305 978.192 280.305C976.897 280.305 975.882 279.962 975.146 279.276C974.418 278.591 974.054 277.681 974.054 276.547C974.054 274.118 975.484 272.704 978.345 272.307L982.242 271.761C982.242 269.552 981.349 268.447 979.563 268.447C977.998 268.447 976.584 268.98 975.323 270.047V267.914C976.601 267.102 978.074 266.695 979.741 266.695C982.797 266.695 984.324 268.312 984.324 271.545V280ZM982.242 273.424L979.106 273.855C978.142 273.991 977.414 274.232 976.923 274.579C976.432 274.918 976.187 275.523 976.187 276.395C976.187 277.029 976.411 277.55 976.859 277.956C977.316 278.354 977.922 278.553 978.675 278.553C979.707 278.553 980.558 278.193 981.227 277.474C981.904 276.746 982.242 275.827 982.242 274.719V273.424ZM994.277 279.873C993.786 280.144 993.139 280.279 992.335 280.279C990.058 280.279 988.92 279.01 988.92 276.471V268.777H986.686V267H988.92V263.826L991.002 263.153V267H994.277V268.777H991.002V276.103C991.002 276.974 991.15 277.596 991.446 277.969C991.743 278.341 992.233 278.527 992.919 278.527C993.444 278.527 993.896 278.383 994.277 278.096V279.873ZM1007.51 274.021H998.327C998.361 275.468 998.75 276.585 999.495 277.372C1000.24 278.159 1001.26 278.553 1002.57 278.553C1004.03 278.553 1005.38 278.07 1006.6 277.105V279.061C1005.46 279.89 1003.95 280.305 1002.07 280.305C1000.24 280.305 998.793 279.716 997.743 278.54C996.694 277.355 996.169 275.692 996.169 273.551C996.169 271.528 996.74 269.882 997.883 268.612C999.034 267.334 1000.46 266.695 1002.16 266.695C1003.86 266.695 1005.18 267.245 1006.11 268.346C1007.04 269.446 1007.51 270.974 1007.51 272.929V274.021ZM1005.37 272.256C1005.36 271.054 1005.07 270.119 1004.5 269.45C1003.93 268.782 1003.14 268.447 1002.12 268.447C1001.14 268.447 1000.31 268.799 999.622 269.501C998.937 270.203 998.513 271.122 998.353 272.256H1005.37ZM969.801 307.637C969.801 312.749 967.494 315.305 962.882 315.305C958.464 315.305 956.255 312.846 956.255 307.929V296.795H958.388V307.789C958.388 311.521 959.962 313.388 963.11 313.388C966.149 313.388 967.668 311.585 967.668 307.979V296.795H969.801V307.637ZM976.491 315H974.358V296.795H976.491V315Z" fill="black"/>
</svg>
